<svg version="1.1" id="Capa_1" xmlns="http://www.w3.org/2000/svg" x="0" y="0" viewBox="0 0 54 54" xml:space="preserve"><path d="M27 53C12.641 53 1 41.359 1 27S12.641 1 27 1s26 11.641 26 26-11.641 26-26 26z" fill="#80d0c7"/><path d="M27 54C12.112 54 0 41.888 0 27S12.112 0 27 0s27 12.112 27 27-12.112 27-27 27zm0-52C13.215 2 2 13.215 2 27s11.215 25 25 25 25-11.215 25-25S40.785 2 27 2z" fill="#fff"/><path d="M22.294 40a.999.999 0 01-.707-1.707L32.88 27 21.587 15.707a.999.999 0 111.414-1.414l11.498 11.498a1.711 1.711 0 010 2.418L23.001 39.707a.997.997 0 01-.707.293z" fill="#fff"/></svg>