<svg version="1.1" id="Capa_1" xmlns="http://www.w3.org/2000/svg" x="0" y="0" viewBox="0 0 512 512" xml:space="preserve"><linearGradient id="SVGID_1_" gradientUnits="userSpaceOnUse" x1="256" y1="513.832" x2="256" y2="2.168" gradientTransform="matrix(1 0 0 -1 0 514)"><stop offset="0" stop-color="#2af598"/><stop offset="1" stop-color="#009efd"/></linearGradient><path d="M199 217.521V469.65l69.422-59.41 48.531 101.592 36.094-17.242-48.015-100.511 100.815-10.216L199 217.521zm40 83.497l65.761 52.884-36.327 3.682L239 382.771v-81.753zM0 218.211h159v40H0v-40zm260 0h252v40H310l-50-40zM139.643 79.494A55.181 55.181 0 00145 55.711c0-30.603-24.897-55.5-55.5-55.5H0v182h110.5c30.603 0 55.5-24.897 55.5-55.5 0-19.923-10.55-37.426-26.357-47.217zM40 40.211h49.5c8.547 0 15.5 6.953 15.5 15.5s-6.953 15.5-15.5 15.5H40v-31zm70.5 102H40v-31h70.5c8.547 0 15.5 6.953 15.5 15.5s-6.953 15.5-15.5 15.5zm75.5-35v-107h40v107c0 19.252 15.688 34.923 35 35 19.313-.077 35-15.748 35-35v-107h40v107c0 41.262-33.554 74.848-74.858 74.999v.001h-.283c-41.305-.152-74.859-33.738-74.859-75zm326-107v37c0 1.217-.029 2.424-.087 3.626l-.107 50.417c0 50.135-40.798 90.957-90.946 90.957-12.867 0-25.318-2.645-37.008-7.859l16.297-36.529c6.528 2.912 13.496 4.389 20.711 4.389 23.505 0 43.344-16.02 49.195-37.724a74.793 74.793 0 01-32.913 7.723v.001h-.283c-41.305-.152-74.858-33.738-74.858-75v-37h40v37c0 19.252 15.688 34.923 35 35 18.491-.073 33.659-14.442 34.916-32.563L472 .168l40 .043z" fill="url(#SVGID_1_)"/></svg>