<svg version="1.1" id="Capa_1" xmlns="http://www.w3.org/2000/svg" x="0" y="0" viewBox="0 0 511.999 511.999" xml:space="preserve"><linearGradient id="SVGID_1_" gradientUnits="userSpaceOnUse" x1="256.008" y1="513.996" x2="256.008" y2="1.983" gradientTransform="matrix(1 0 0 -1 -.001 513.982)"><stop offset="0" stop-color="#2af598"/><stop offset="1" stop-color="#009efd"/></linearGradient><path d="M192.001 163.998H232v39.999h-39.999v-39.999zm79.998 39.998h39.999v-39.999h-39.999v39.999zm79.998 0h39.999v-39.999h-39.999v39.999zm96.808 165.427l19.222 30.631-36.202-.065-.381.001c-8.705 0-43.19-1.615-75.906-25.288-8.069 33.644-26.998 60.933-55.632 79.796-30.279 19.946-71.742 30.49-119.904 30.49-13.664 0-26.074-.694-37.628-2.113-28.074 26.5-61.126 29.124-72.996 29.124-.458 0-.885-.004-1.278-.011l-.062-.001h-37.6l20.976-30.965c.475-.758 5.978-9.722 10.876-25.001C21.465 430.181.006 388.678.006 335.025c0-31.973 7.658-59.769 22.759-82.62 12.291-18.595 29.284-33.62 50.606-44.767a224.927 224.927 0 01-1.367-24.933c0-31.141 5.972-59.145 17.749-83.237 11.247-23.004 27.77-42.489 49.116-57.91C176.499 14.372 229.45 0 291.999 0s115.5 14.372 153.13 41.56c21.344 15.422 37.869 34.906 49.116 57.91 11.777 24.09 17.749 52.096 17.749 83.237 0 66.631-27.166 117.825-78.794 149.035 6.938 23.464 15.503 37.516 15.605 37.681zm-131.909-5.072c-7.847.424-16.118.639-24.897.639-62.588 0-115.529-14.291-153.099-41.326-21.357-15.369-37.891-34.807-49.14-57.772-2.722-5.557-5.119-11.332-7.218-17.299-28.241 18.54-42.536 47.529-42.536 86.434 0 44.037 18.329 75.407 54.478 93.238l14.073 6.941-3.394 15.32a203.264 203.264 0 01-3.261 12.761c6.118-3.414 12.345-8.153 18.008-14.731l7.369-8.559 11.135 1.891c12.295 2.088 25.898 3.103 41.589 3.103 40.318 0 74.171-8.263 97.9-23.894 20.358-13.412 33.424-32.453 38.993-56.746zm155.098-181.644c0-124.168-112.773-142.708-179.995-142.708s-179.995 18.54-179.995 142.708c0 123.8 112.773 142.285 179.995 142.285 20.572 0 37.852-1.236 52.823-3.778l11.135-1.891 7.369 8.56c10.971 12.741 23.394 20.443 34.664 25.092a253.156 253.156 0 01-7.559-26.974l-3.393-15.32 14.072-6.941c47.034-23.202 70.884-63.923 70.884-121.033z" fill="url(#SVGID_1_)"/></svg>