<svg version="1.1" id="Capa_1" xmlns="http://www.w3.org/2000/svg" x="0" y="0" viewBox="0 0 512 512" xml:space="preserve"><linearGradient id="SVGID_1_" gradientUnits="userSpaceOnUse" x1="256.596" y1="513.229" x2="256.596" y2="1.228" gradientTransform="matrix(.9981 0 0 -.9981 -.096 512.727)"><stop offset="0" stop-color="#2af598"/><stop offset="1" stop-color="#009efd"/></linearGradient><path d="M236.538 76.351h39.922v199.61H124.756v-39.922h111.782V76.351zm235.54-29.942v73.931c-18.771-29.96-43.63-55.786-73.296-75.913C356.423 15.689 306.878.499 255.501.499c-68.247 0-132.408 26.577-180.667 74.834C26.577 123.592 0 187.753 0 256s26.577 132.408 74.834 180.667c48.259 48.257 112.42 74.834 180.667 74.834 11.111 0 22.295-.722 33.241-2.145l-5.146-39.589a218.7 218.7 0 01-28.094 1.811c-118.871 0-215.579-96.708-215.579-215.579S136.631 40.421 255.502 40.421c77.157 0 147.175 40.697 185.603 105.793h-68.833v39.922H512V46.409h-39.922zM319.227 462.011l11.784 38.143a254.7 254.7 0 0040.083-16.239l-18.084-35.591a214.755 214.755 0 01-33.783 13.687zm64.791-32.91l23.824 32.034a257.628 257.628 0 0032.39-28.626l-28.86-27.584a217.47 217.47 0 01-27.354 24.176zm50.266-52.596l33.081 22.346a255.941 255.941 0 0021.091-37.768l-36.382-16.435a216.005 216.005 0 01-17.79 31.857zm36.037-102.54c-.178 2.129-.39 4.248-.627 6.36l.019.001a215.515 215.515 0 01-5.511 29.925l38.646 10.013a255.605 255.605 0 007.251-42.634l-.029-.002c.106-1.22.212-2.439.297-3.663h-40.046z" fill="url(#SVGID_1_)"/></svg>