<svg id="Layer_1" height="512" width="512" xmlns="http://www.w3.org/2000/svg"><linearGradient id="SVGID_1_" gradientUnits="userSpaceOnUse" x1="256" x2="256" y1="48" y2="464"><stop offset="0" stop-color="#8df49b"/><stop offset="1" stop-color="#589cf9"/></linearGradient><path d="M452 48H60C26.916 48 0 74.916 0 108v49.495l220.191 163.781c10.709 7.965 23.259 11.948 35.809 11.948s25.1-3.982 35.809-11.948L512 157.495V108c0-33.084-26.916-60-60-60zm20 89.396L267.937 289.18c-7.14 5.311-16.734 5.311-23.873 0L40 137.396V108c0-11.028 8.972-20 20-20h392c11.028 0 20 8.972 20 20zm0 99.703l40-29.752V404c0 33.084-26.916 60-60 60H60c-33.084 0-60-26.916-60-60V207.347l40 29.752V404c0 11.028 8.972 20 20 20h392c11.028 0 20-8.972 20-20z" fill="url(#SVGID_1_)"/></svg>