<svg version="1.1" id="Capa_1" xmlns="http://www.w3.org/2000/svg" x="0" y="0" viewBox="0 0 511.999 511.999" xml:space="preserve"><linearGradient id="SVGID_1_" gradientUnits="userSpaceOnUse" x1="256.218" y1="513.9" x2="256.218" y2="1.534" gradientTransform="matrix(.9993 0 0 -.9993 -.035 513.532)"><stop offset="0" stop-color="#2af598"/><stop offset="1" stop-color="#009efd"/></linearGradient><path d="M471.845 308.725v153.1l-116.916-26.809v-49.64l-8.124-6.559-12.555-10.137c-1.57-1.267-8.831-7.198-19.294-16.726v83.427l-117.915 29.853V77.678l6.82-1.77a179.858 179.858 0 0127.96-48.551l-54.998 14.272L.183 0v467.566l176.919 43.948 158.073-40.018L511.816 512V257.64c-9.807 14.784-21.417 29.887-34.742 45.176a541.506 541.506 0 01-5.229 5.909zM157.07 465.351L40.154 436.308V50.486L157.07 78.039v387.312zM371.916.163c-77.141 0-139.9 62.728-139.9 139.832v3.671c0 38.783 21.827 83.494 64.875 132.89 30.774 35.313 61.188 59.991 62.468 61.024l12.555 10.139 12.555-10.139c1.28-1.033 31.694-25.712 62.468-61.024 43.049-49.396 64.876-94.107 64.876-132.89v-3.671C511.816 62.891 449.058.163 371.916.163zm99.929 143.503c0 52.118-63.545 119.634-99.863 152.039-11.062-9.914-28.037-25.998-44.955-45.41-36.006-41.315-55.039-78.187-55.039-106.629v-3.671c0-55.064 44.828-99.86 99.928-99.86s99.928 44.797 99.928 99.86v3.671zm-99.929-61.594c-33.06 0-59.957 26.897-59.957 59.957s26.897 59.957 59.957 59.957 59.957-26.897 59.957-59.957-26.896-59.957-59.957-59.957zm0 79.943c-11.02 0-19.986-8.966-19.986-19.986 0-11.02 8.966-19.986 19.986-19.986s19.986 8.966 19.986 19.986c0 11.02-8.965 19.986-19.986 19.986z" fill="url(#SVGID_1_)"/></svg>