<svg version="1.1" id="Capa_1" xmlns="http://www.w3.org/2000/svg" x="0" y="0" viewBox="0 0 512 512" xml:space="preserve"><linearGradient id="SVGID_1_" gradientUnits="userSpaceOnUse" x1="256" y1="514" x2="256" y2="2" gradientTransform="matrix(1 0 0 -1 0 514)"><stop offset="0" stop-color="#2af598"/><stop offset="1" stop-color="#009efd"/></linearGradient><path d="M68.5 202.284L40.216 174 118.5 95.716 196.784 174 168.5 202.284l-50-50-50 50zM511.5 60v392c0 11.207-5.345 32.189-41.146 46.801C449.501 507.313 422.208 512 393.5 512s-56.001-4.688-76.854-13.199C280.845 484.189 275.5 463.207 275.5 452V60c0-11.207 5.346-32.189 41.146-46.801C337.499 4.688 364.792 0 393.5 0s56.001 4.688 76.854 13.199C506.154 27.811 511.5 48.793 511.5 60zm-40 46.315c-.385.162-.753.326-1.146.487C449.501 115.313 422.208 120 393.5 120s-56.001-4.688-76.854-13.199c-.392-.16-.761-.325-1.146-.487v32.025c3.223 6.13 30.105 20.661 78 20.661s74.777-14.531 78-20.661v-32.024zm0 79c-.385.162-.753.326-1.146.487C449.501 194.313 422.208 199 393.5 199s-56.001-4.688-76.854-13.199c-.392-.16-.761-.325-1.146-.487v33.025c3.223 6.13 30.105 20.661 78 20.661s74.777-14.531 78-20.661v-33.024zm0 80c-.385.162-.753.326-1.146.487C449.501 274.313 422.208 279 393.5 279s-56.001-4.688-76.854-13.199c-.392-.16-.761-.325-1.146-.487v30.025c3.223 6.13 30.105 20.661 78 20.661s74.777-14.531 78-20.661v-30.024zm0 77c-.385.162-.753.326-1.146.487C449.501 351.313 422.208 356 393.5 356s-56.001-4.688-76.854-13.199c-.392-.16-.761-.325-1.146-.487v30.025c3.223 6.13 30.105 20.661 78 20.661s74.777-14.531 78-20.661v-30.024zM315.903 60c4.693 6.454 31.363 20 77.597 20s72.904-13.546 77.597-20c-4.693-6.454-31.363-20-77.597-20s-72.904 13.546-77.597 20zM471.5 451.367v-32.052c-.385.162-.753.326-1.146.487C449.501 428.313 422.208 433 393.5 433s-56.001-4.688-76.854-13.199c-.392-.16-.761-.325-1.146-.487v32.052c3.304 6.149 30.193 20.633 78 20.633s74.696-14.483 78-20.632zM236.5 296c0 .933-.042 1.94-.131 3h.131v153c0 11.207-5.346 32.189-41.146 46.801C174.501 507.313 147.208 512 118.5 512s-56.001-4.688-76.854-13.199C5.846 484.189.5 463.207.5 452V299h.131a36.028 36.028 0 01-.131-3c0-11.207 5.346-32.189 41.146-46.801C62.499 240.688 89.792 236 118.5 236s56.001 4.688 76.854 13.199c35.8 14.612 41.146 35.594 41.146 46.801zm-40 46.315c-.385.162-.753.326-1.146.487C174.501 351.313 147.208 356 118.5 356s-56.001-4.688-76.854-13.199c-.392-.16-.761-.325-1.146-.487v30.025c3.223 6.13 30.105 20.661 78 20.661s74.777-14.531 78-20.661v-30.024zM40.91 295.991c.037.052.07.102.111.155a10.318 10.318 0 00.855.969 15.594 15.594 0 00.748.707 23.64 23.64 0 00.882.739c.172.137.355.275.54.415.156.117.311.234.476.354.198.143.409.288.621.434.174.119.345.238.528.359.227.15.468.302.708.453.19.12.376.239.575.361.256.156.528.314.799.472.205.12.404.239.617.359.289.163.596.328.901.493.216.117.424.233.647.35.336.176.691.353 1.044.531.213.107.416.213.635.32.441.216.905.432 1.371.649.148.069.286.137.436.206.627.286 1.276.572 1.947.858.128.055.267.109.396.163.547.23 1.101.459 1.677.688.248.098.511.196.765.294.473.183.944.366 1.435.548.302.112.62.222.929.333.464.167.926.334 1.406.498.334.115.682.228 1.024.342.474.158.947.316 1.436.472.364.116.741.23 1.112.345.487.15.974.301 1.475.449.392.116.795.229 1.195.343.503.143 1.006.286 1.522.426.417.113.844.224 1.269.336.52.136 1.042.272 1.575.405.44.11.888.217 1.337.325.54.129 1.084.258 1.637.384a175.896 175.896 0 003.098.671 164.686 164.686 0 008.16 1.471c.628.098 1.265.191 1.905.283.539.078 1.078.156 1.626.23.656.089 1.322.172 1.99.255.554.069 1.106.138 1.668.203.682.079 1.377.151 2.072.224.568.059 1.133.12 1.71.175.714.068 1.443.129 2.17.191.576.049 1.147.1 1.731.145.758.058 1.533.107 2.305.157.573.037 1.139.078 1.719.111.82.047 1.659.083 2.494.121.552.025 1.095.055 1.653.076.934.035 1.888.058 2.841.082.478.012.947.03 1.429.039a234.438 234.438 0 008.778 0c.483-.009.951-.027 1.429-.039.952-.024 1.906-.047 2.841-.082.558-.021 1.102-.051 1.653-.076.835-.038 1.673-.074 2.494-.121.58-.033 1.147-.074 1.719-.111.772-.05 1.546-.099 2.305-.157.584-.045 1.155-.096 1.731-.145.727-.062 1.456-.123 2.17-.191.577-.055 1.142-.116 1.71-.175.695-.073 1.39-.145 2.072-.224.562-.065 1.114-.134 1.668-.203.668-.083 1.335-.167 1.99-.255a172.17 172.17 0 001.626-.23 158.073 158.073 0 003.482-.537 174.89 174.89 0 006.583-1.217 156.66 156.66 0 006.072-1.38c.533-.133 1.055-.269 1.575-.405.425-.111.852-.222 1.269-.336.516-.14 1.019-.283 1.522-.426.4-.114.803-.227 1.195-.343.501-.148.988-.298 1.475-.449.372-.115.749-.229 1.112-.345.489-.156.962-.314 1.436-.472.342-.114.69-.227 1.024-.342.48-.165.941-.332 1.406-.498.309-.111.627-.221.929-.333.491-.181.962-.365 1.435-.548.253-.098.517-.195.765-.294.576-.228 1.13-.458 1.677-.688.13-.055.268-.109.396-.163.671-.285 1.32-.572 1.947-.858.15-.069.288-.137.436-.206.467-.216.93-.433 1.371-.649.219-.107.422-.213.635-.32.353-.177.708-.354 1.044-.531.223-.117.432-.233.647-.35.304-.165.612-.33.901-.493.213-.12.412-.239.617-.359.27-.158.543-.316.799-.472.199-.121.385-.241.575-.361.24-.152.481-.304.708-.453.183-.121.354-.24.528-.359a25.674 25.674 0 001.097-.788 20.512 20.512 0 00.96-.759 17.447 17.447 0 001.21-1.102 10.318 10.318 0 00.855-.969c.04-.053.073-.103.111-.155C191.38 289.534 164.714 276 118.5 276s-72.88 13.534-77.59 19.991zM196.5 451.366v-32.052c-.385.162-.753.326-1.146.487C174.501 428.313 147.208 433 118.5 433s-56.001-4.688-76.854-13.199c-.392-.16-.761-.325-1.146-.487v32.052c3.304 6.149 30.193 20.634 78 20.634s74.696-14.484 78-20.634z" fill="url(#SVGID_1_)"/></svg>