<svg version="1.1" id="Capa_1" xmlns="http://www.w3.org/2000/svg" x="0" y="0" viewBox="0 0 512 512" xml:space="preserve"><linearGradient id="SVGID_1_" gradientUnits="userSpaceOnUse" x1="256" y1="514" x2="256" y2="2" gradientTransform="matrix(1 0 0 -1 0 514)"><stop offset="0" stop-color="#2af598"/><stop offset="1" stop-color="#009efd"/></linearGradient><path d="M100.5 0c-33.084 0-60 26.916-60 60v392c0 33.084 26.916 60 60 60h371V0h-371zm331 472h-331c-11.028 0-20-8.972-20-20V60c0-11.028 8.972-20 20-20h331v432zm-272-97h194v40h-194v-40zm95-44c66.168 0 120-53.832 120-120s-53.832-120-120-120-120 53.832-120 120 53.832 120 120 120zm-77.468-100h21.887c1.064 15.537 3.363 30.257 6.765 43.314-13.867-10.716-24.144-25.862-28.652-43.314zm92.953-40h-30.971c2.469-30.936 10.271-50.73 15.485-57.906 5.215 7.176 13.018 26.97 15.486 57.906zm0 40c-2.469 30.936-10.271 50.729-15.485 57.905-5.214-7.176-13.016-26.969-15.485-57.905h30.97zm33.331 43.314c3.401-13.057 5.701-27.777 6.765-43.314h21.887c-4.508 17.452-14.785 32.598-28.652 43.314zM331.968 191h-21.887c-1.064-15.537-3.363-30.257-6.765-43.314 13.867 10.716 24.144 25.862 28.652 43.314zm-126.284-43.314c-3.401 13.057-5.701 27.777-6.765 43.314h-21.887c4.508-17.452 14.785-32.598 28.652-43.314z" fill="url(#SVGID_1_)"/></svg>