<svg width="0" height="0" class="hidden"><symbol xmlns="http://www.w3.org/2000/svg" viewBox="0 0 1024 1024" id="fb"><path d="M486.9 80.1c-55.9 3.3-111.5 17.8-161.8 42C203 180.9 114.9 294 88 426.5c-18.9 92.9-6.7 190 34.4 275C181.3 823.4 294.2 911.2 426.5 938c92.9 18.9 190 6.7 275-34.4 87.8-42.4 159.7-114.3 202.1-202.1 20.2-41.8 33.5-86.5 39.4-132.4 10.9-84-2.8-169-39.4-244.6-42.4-87.8-114.3-159.7-202.1-202.1C635 90.2 560.8 75.6 486.9 80.1zm176.9 236.1l-.3 47.3-46 .5c-52 .6-48.8 0-54.4 8.8-5.7 9.1-6.1 12.2-6.1 49.4V456h107v89H557v266H454V545h-92v-89h92v-32.1c0-34.9 1-45.7 5.6-61.6 12.6-43.4 46.2-78.3 85.7-88.8 14.4-3.9 20.6-4.2 71.5-4.4l47.2-.1-.2 47.2z" fill="#3b5998"/></symbol><symbol xmlns="http://www.w3.org/2000/svg" viewBox="0 0 1024 1024" id="insta"><path d="M482 80.1c-103.6 7.7-198.1 50.3-272.3 122.8-97.6 95.2-144.4 230-127.1 365.4 21.6 169.3 141 310.3 305 360.2 126.8 38.6 267.9 15.7 375.4-60.8 132.1-94.1 200.8-250.2 180.4-410-21.6-169.3-141-310.3-305-360.2C589.6 82.6 532.7 76.3 482 80.1zm231 197.7c30.6 9.5 53.1 34.4 57.9 64.2.7 3.9 1.1 25.7 1.1 54.2V444H640.2l-7.7-9.5c-36.5-45-90-63.9-151-53.5-29.3 5-54.4 17.9-75.1 38.5-5.5 5.5-12.4 13.3-15.3 17.2l-5.4 7.3H253.9l.3-52.3.3-52.2 2.8-8c7.7-22.7 25.6-42 47-50.7 14.5-5.9 5.4-5.7 211.7-5.5l189.5.2 7.5 2.3zM532.2 439.4c35.1 6.9 65.4 35.2 74.2 69.1 10.9 42.5-6.2 84.4-44.5 108.8-22.2 14.1-53.5 17.6-79.6 8.7-30.5-10.4-54.8-36.7-63.5-68.9-3.1-11.2-3.1-34.2 0-46.4 8.8-35.3 38.5-63.9 74.2-71.2 8.8-1.8 30.1-1.8 39.2-.1zm-173.9 71.8c-.4 4-.8 15.6-.7 25.8.1 27.1 3.8 43.2 15.4 66.5 18.6 37.5 55.4 68.7 94.8 80.4 16.6 4.9 29.8 6.4 50.7 5.8 19.7-.6 27-1.8 43.5-7.3 21-7 39.9-18.7 57.8-35.9 25.6-24.5 41-52.2 46.9-84.5 2.3-12.5 2.3-41.5.1-51.3l-1.6-6.7H772v107.9c0 118.1.1 115.5-5.9 130.6-9.9 24.6-34.2 44.9-59.6 49.7-10.4 1.9-379.2 1.9-388 0-16.3-3.7-30-11.7-42.2-24.6-8.4-8.9-13.1-16-17-25.6-5.3-13.3-5.3-12.5-5.3-129.6V504h105.1l-.8 7.2z"/><path d="M664.3 319.6c-5.8 2.9-6.3 5.3-6.3 33.4 0 27.7.2 28.8 6.3 33.4l3.4 2.6h26.2c28.8 0 30.7-.3 33.6-6 2.3-4.4 2.2-53.7-.1-58.5-2.8-6.1-5.1-6.5-34.1-6.5-21.4 0-26.3.3-29 1.6z"/></symbol><symbol xmlns="http://www.w3.org/2000/svg" viewBox="0 0 256 256" id="mail_icon"><path d="M90.122 111.336c4.814 10.698 40.475 41.901 43.863 42.08s58.662-49.39 57.057-52.778-111.796-4.458-114.828-1.07c-3.031 3.388-1.962 78.097.713 80.237s111.083 2.318 113.401-1.426c2.318-3.744 4.814-57.414 1.783-60.623"/><path d="M108.268 237.352c59.036 15.089 118.653-21.832 130.648-77.676 11.711-54.524-25.236-108.671-78.551-121.912-54.05-13.424-112.363 18.419-127.044 72.412-22.447 84.527 54.151 122.097 57.994 122.09"/></symbol><symbol xmlns="http://www.w3.org/2000/svg" viewBox="0 0 256 256" id="phone_icon"><path d="M228.649 174.606c27.113-54.57 3.489-120.595-48.607-144.013C129.178 7.728 68.497 32.522 44.388 81.884c-24.441 50.042-5.511 113.729 44.214 139.386 77.956 39.643 130.727-27.393 131.525-31.152"/><path d="M142.285 134.396c4.54-3.892 11.745-8.286 11.313-10.665-.432-2.378-4.904-7.198-13.042-7.712-.961-.061-15.523-.691-22.198 9.945-5.438 8.665-3.031 18.573 2.378 25.366 6.589 8.274 19.269 10.46 29.403 4.898 18.701-13.08 8.253-26.589 9.442-29.615 9.296-14.702 37.328-11.242 39.49-12.756 2.162-1.513 3.892-16.107 2.378-18.809s-29.591-24.071-66.082-22.701C104.651 73.5 81.21 90.832 78.939 93.967c-2.27 3.135-3.892 20.755-1.73 22.052s29.295 1.405 31.349-.216c2.054-1.621-2.702-16.972-.865-20.107 1.838-3.135 15.898-6.736 29.187-7.135 15.377-.462 31.457 4.324 33.079 6.918 1.622 2.594-1.73 14.053-1.081 16.431s20.826 32.322 20.178 46.483c-.649 14.161-5.73 19.566-7.567 20.323-1.837.757-85.756 1.189-87.918-.432-2.162-1.622-5.189-13.513-4.757-23.133s7.253-24.573 10.952-31.565"/></symbol><symbol xmlns="http://www.w3.org/2000/svg" viewBox="0 0 1024 1024" id="telega"><path d="M482 80.1c-103.6 7.7-198.1 50.3-272.3 122.8-97.6 95.2-144.4 230-127.1 365.4 21.6 169.3 141 310.3 305 360.2 126.8 38.6 267.9 15.7 375.4-60.8 132.1-94.1 200.8-250.2 180.4-410-21.6-169.3-141-310.3-305-360.2C589.6 82.6 532.7 76.3 482 80.1zm299.4 155.3c4.9 2.8 7.9 7.4 8.9 13.6.5 2.4-14.6 95-46.8 287.9-44.8 269-47.5 284.6-50.2 288.9-3.5 5.7-9.7 9.2-16.2 9.2-3.7 0-22.5-7.2-96.8-36.9l-92.2-36.8-19.2 32.1c-10.5 17.6-20.6 33.6-22.3 35.5-3.9 4.2-8.3 6.1-14.1 6.1-6.2 0-10.6-2-14.4-6.6-1.7-2.2-18.6-30.9-37.5-63.9l-34.3-60-75.4-30.1c-69.4-27.8-75.7-30.5-78.6-33.9-5.9-6.8-6.4-18.4-1-24.4 2.8-3 571.2-382.1 574.7-383.2 4.2-1.4 10.6-.3 15.4 2.5z"/><path d="M555.8 497.2c-96 103-174.6 187.7-174.7 188.3 0 .5 11.5 21.1 25.6 45.6l25.8 44.7 2.1-3.2c1.2-1.7 65.8-102.6 143.6-224.1 77.8-121.6 144-224.9 147.1-229.8 3.1-4.8 5.5-8.7 5.3-8.7-.1 0-78.8 84.3-174.8 187.2zM464 479c-118 78.6-214.5 143.3-214.5 143.7 0 .4 25.3 11 56.3 23.4 30.9 12.4 57 23.3 58 24.1 1.6 1.4 10-7.4 113.4-118.1 61.4-65.8 131.9-141.3 156.7-167.9 24.8-26.5 45-48.2 44.9-48.2-.2.1-96.8 64.4-214.8 143zm149.3 53.8L491.1 722.5l4.7.9c2.6.4 40.9 15.4 85.1 33.3 44.2 17.8 80.4 32.3 80.5 32.1.4-.5 74.6-445.2 74.3-445.4-.1-.1-55.2 85.1-122.4 189.4z"/></symbol><symbol xmlns="http://www.w3.org/2000/svg" viewBox="0 0 1024 1024" id="vk"><path d="M482 80.1c-103.6 7.7-198.1 50.3-272.3 122.8-97.6 95.2-144.4 230-127.1 365.4 21.6 169.3 141 310.3 305 360.2 126.8 38.6 267.9 15.7 375.4-60.8 132.1-94.1 200.8-250.2 180.4-410-21.6-169.3-141-310.3-305-360.2C589.6 82.6 532.7 76.3 482 80.1zM515.1 349c22.2 2.2 33.3 5.7 38.3 12.2 1.3 1.8 3.4 6.2 4.6 9.8 2.6 7.6 2.7 16.3 1.1 81.3-1 40.6-.4 53.1 2.9 62.1 3.9 10.3 12.5 15 20.1 11.1 6.9-3.6 23-21.3 33.5-37 24.3-36 39.1-63.9 56.9-107 3.6-8.5 8.4-14.1 13.4-15.4 2-.6 30.3-1.1 65.1-1.2l61.5-.2 5.2 2.2c6.7 3 9.3 6.9 9.3 14 0 13.5-14.1 41.2-38.3 75.1-3.3 4.7-15.8 21.3-27.7 37-26.3 34.6-32 42.7-36 51.1-5 10.6-3.8 19.3 4.1 29.6 2.3 2.9 13.9 14.6 25.8 26 33.3 31.9 48.4 48.7 60.7 67.1 8.8 13.3 12.2 23.1 10.8 31.5-.7 4.6-5.3 10.1-10.5 12.8-6.2 3.1-15.7 3.7-68 4.4l-49.5.7-8-2.7c-20.4-6.8-34-18.1-64.9-53.9-17.1-19.8-29.8-29.5-38.6-29.6-8.1 0-18.4 10.8-22.8 24.2-3 9-4.1 15.9-5 31.5-1.1 18.4-3.3 22.7-14.6 27.4-4.1 1.8-55.1 2.4-68.6 1-27.1-3-52.2-11.5-77.1-26.2-36.1-21.2-58.2-40.2-81.9-70.4-41.2-52.6-69.3-97.4-103.4-165-13.2-26.3-28.7-60.3-31.2-68.4-2.5-8.4 1.1-15.3 9.3-17.9 2.8-.9 18.4-1.4 54.4-1.9l50.5-.5 5.9 2.2c9.3 3.6 13.2 8.2 19.5 23.5 5.4 12.9 34.5 71.3 43.6 87.6 9.3 16.5 19.2 30.3 27.7 38.5 10.5 10.3 15.2 12.8 22.6 12.2 6.3-.6 8-2 11.9-10.5 9.5-20.5 11-89.8 2.5-117-4.9-15.5-12.2-21.4-32.4-25.7-3.5-.8-3.5-2-.3-6.7 7.8-11.2 21.7-16.6 48.2-18.8 14.5-1.2 57.5-1.3 69.4-.1z"/></symbol><symbol xmlns="http://www.w3.org/2000/svg" viewBox="0 0 510.127 510.127" id="ruble"><path d="M34.786 428.963h81.158v69.572c0 3.385 1.083 6.156 3.262 8.322 2.173 2.18 4.951 3.27 8.335 3.27h60.502c3.14 0 5.857-1.09 8.152-3.27 2.295-2.166 3.439-4.938 3.439-8.322v-69.572h182.964c3.377 0 6.156-1.076 8.334-3.256 2.18-2.178 3.262-4.951 3.262-8.336v-46.377c0-3.365-1.082-6.156-3.262-8.322-2.172-2.18-4.957-3.27-8.334-3.27h-182.97v-42.754h123.184c48.305 0 87.73-14.719 118.293-44.199 30.551-29.449 45.834-67.49 45.834-114.125 0-46.604-15.283-84.646-45.834-114.125C410.548 14.749 371.116 0 322.812 0H127.535c-3.385 0-6.157 1.089-8.335 3.256-2.173 2.179-3.262 4.969-3.262 8.335v227.896H34.786c-3.384 0-6.157 1.145-8.335 3.439-2.172 2.295-3.262 5.012-3.262 8.151v53.978c0 3.385 1.083 6.158 3.262 8.336 2.179 2.18 4.945 3.256 8.335 3.256h81.158v42.754H34.786c-3.384 0-6.157 1.09-8.335 3.27-2.172 2.166-3.262 4.951-3.262 8.322v46.377c0 3.385 1.083 6.158 3.262 8.336 2.178 2.181 4.95 3.257 8.335 3.257zM199.628 77.179h115.938c25.6 0 46.248 7.485 61.953 22.46 15.697 14.976 23.549 34.547 23.549 58.691 0 24.156-7.852 43.733-23.549 58.691-15.705 14.988-36.354 22.473-61.953 22.473H199.628V77.179z"/></symbol><symbol xmlns="http://www.w3.org/2000/svg" viewBox="0 -1 512 512" id="address"><linearGradient id="a" gradientUnits="userSpaceOnUse" x1="256" x2="256" y1="0" y2="510.749"><stop offset="0" stop-color="#2af598"/><stop offset="1" stop-color="#009efd"/></linearGradient><path d="M204.5 458.605v51.856l-12.54-10.129c-1.937-1.566-48.034-38.992-94.78-92.66C32.695 333.637 0 267.18 0 210.152V204.5C0 91.738 91.738 0 204.5 0S409 91.738 409 204.5v5.652c0 4.79-.254 9.653-.715 14.575l-39.992-36.485c-8.191-83.156-78.52-148.34-163.793-148.34-90.758 0-164.598 73.84-164.598 164.598v5.652c0 96.368 124.164 213.028 164.598 248.453zm122.7-28.66h59.85v-59.851H327.2zM204.5 119.707c46.754 0 84.793 38.04 84.793 84.793s-38.04 84.793-84.793 84.793-84.793-38.04-84.793-84.793 38.04-84.793 84.793-84.793zm0 39.902c-24.754 0-44.89 20.137-44.89 44.891 0 24.75 20.136 44.89 44.89 44.89 24.75 0 44.89-20.14 44.89-44.89 0-24.754-20.14-44.89-44.89-44.89zm280.61 243.223l-11.22-10.234v64.058c0 29.828-24.269 54.094-54.097 54.094H293.461c-29.828 0-54.098-24.266-54.098-54.094v-64.058l-11.218 10.234-26.891-29.477L356.625 231.61 512 373.355zm-51.122-46.637l-77.363-70.574-77.36 70.574v100.457c0 7.828 6.368 14.196 14.196 14.196h126.332c7.828 0 14.195-6.368 14.195-14.196zm0 0" fill="url(#a)"/></symbol><symbol xmlns="http://www.w3.org/2000/svg" viewBox="0 0 1800 1800" id="mail"><path d="M531.087 344.727c.247 0 .492.033.739.033h453.558c16.819 0 30.444-13.625 30.444-30.436 0-16.815-13.625-30.435-30.444-30.435H531.826c-16.811 0-30.44 13.62-30.44 30.435 0 16.561 13.238 30.007 29.701 30.403zm.739 152.662h749.422c16.814 0 30.443-13.629 30.443-30.439 0-16.814-13.629-30.439-30.443-30.439H531.826c-16.811 0-30.44 13.625-30.44 30.439 0 16.81 13.63 30.439 30.44 30.439zm0 152.62h749.422c16.814 0 30.443-13.633 30.443-30.444 0-8.872-3.822-16.827-9.877-22.389-5.424-4.982-12.625-8.046-20.566-8.046H531.826c-7.938 0-15.143 3.064-20.567 8.046-6.054 5.562-9.873 13.517-9.873 22.389 0 16.811 13.63 30.444 30.44 30.444zm779.865 122.185c0-16.806-13.629-30.436-30.443-30.436H531.826c-16.811 0-30.44 13.629-30.44 30.436 0 16.815 13.629 30.444 30.44 30.444h749.422c16.815 0 30.443-13.629 30.443-30.444z"/><path d="M1772.088 533.511a30.367 30.367 0 00-9.603-8.622l-246.454-139.961v-92.242a30.075 30.075 0 00-11.406-19.066l-49.465-42.835-131.073-113.508-61.889-53.596c-5.286-4.582-11.866-7.021-18.591-7.275H383.746c-47.809 0-86.705 38.895-86.705 86.696V382.15L61.554 515.893c-31.678 11.565-54.396 41.913-54.396 77.54v1067.543c0 45.554 37.064 82.618 82.622 82.618h1625.598c45.558 0 82.623-37.064 82.623-82.618V593.433c-.001-23.594-9.999-44.85-25.913-59.922zm-157.662-22.697l92.579 52.583-11.661 8.301-179.313 127.664v-244.42l98.395 55.872zM1405.5 267.454h-132.895V152.361L1405.5 267.454zM357.922 571.698V143.102c0-14.239 11.585-25.825 25.824-25.825h828.62v180.296c0 16.631 13.483 30.11 30.119 30.11h212.674V742.7l-397.298 282.87-50.781 36.148-18.591 13.241-81.088 57.728-81.093-57.728-18.611-13.25-50.782-36.155-398.993-284.071V571.698zM193.76 510.814l103.281-58.649V698.14L119.448 571.698l-14.597-10.395 88.909-50.489zM68.036 1648.984V609.822l229.005 163.047 60.88 43.344L710.7 1067.38l-8.372 7.58-67.267 60.871-567.025 513.153zm53.459 33.739l604.294-546.892 35.693-32.304 45.37 32.304 82.897 59.028a30.39 30.39 0 0017.653 5.637 30.396 30.396 0 0017.652-5.637l82.889-59.028 45.354-32.286 35.686 32.286 604.311 546.892H121.495zm1615.624-42.452l-557.41-504.439-67.267-60.871-8.359-7.563 351.077-249.962 60.871-43.348 221.088-157.407v1023.59z"/></symbol><symbol xmlns="http://www.w3.org/2000/svg" viewBox="0 0 1800 1800" id="mobile"><path d="M1346.861 3.943h-893.72c-45.89 0-83.232 37.339-83.232 83.229v1625.653c0 45.891 37.342 83.23 83.232 83.23h893.72c45.891 0 83.229-37.34 83.229-83.23V87.173c.001-45.89-37.338-83.23-83.229-83.23zM453.141 66.61h893.72c11.34 0 20.563 9.223 20.563 20.563v172.719H432.578V87.173c0-11.34 9.223-20.563 20.563-20.563zm914.283 224.624v1169.788H432.578V291.234h934.846zm-20.563 1442.156h-893.72c-11.34 0-20.563-9.224-20.563-20.563v-220.47h934.846v220.47c0 11.339-9.223 20.563-20.563 20.563z"/><path d="M949.946 143.519h-99.891c-8.655 0-15.667 7.012-15.667 15.667 0 8.646 7.012 15.667 15.667 15.667h99.891c8.655 0 15.667-7.021 15.667-15.667 0-8.655-7.011-15.667-15.667-15.667zm-49.944 1395.182c-39.779 0-72.144 32.355-72.144 72.135 0 39.778 32.365 72.145 72.144 72.145 39.777 0 72.142-32.366 72.142-72.145 0-39.779-32.365-72.135-72.142-72.135zm0 112.945c-22.503 0-40.81-18.307-40.81-40.811 0-22.495 18.307-40.802 40.81-40.802 22.501 0 40.809 18.307 40.809 40.802 0 22.505-18.308 40.811-40.809 40.811z"/></symbol><symbol xmlns="http://www.w3.org/2000/svg" xmlns:xlink="http://www.w3.org/1999/xlink" viewBox="0 0 512 512" id="whatsapp"><linearGradient id="a"><stop offset="0" stop-color="#2af598"/><stop offset="1" stop-color="#009efd"/></linearGradient><linearGradient id="b" gradientUnits="userSpaceOnUse" x1="255.752" x2="255.752" xlink:href="#a" y1="0" y2="512"/><linearGradient id="c" gradientUnits="userSpaceOnUse" x1="257.75" x2="257.75" xlink:href="#a" y1="141.863" y2="361.65"/><path d="M435.922 74.352C387.824 26.434 323.84.027 255.742 0 187.797 0 123.711 26.383 75.297 74.29 26.797 122.276.063 186.05 0 253.628v.125c.008 40.902 10.754 82.164 31.152 119.828L.7 512l140.012-31.848c35.46 17.871 75.027 27.293 114.934 27.309h.101c67.934 0 132.02-26.387 180.441-74.297 48.543-48.027 75.29-111.719 75.32-179.34.02-67.144-26.82-130.883-75.585-179.472zM255.742 467.5h-.09c-35.832-.016-71.336-9.012-102.668-26.023l-6.62-3.594-93.102 21.176 20.222-91.907-3.898-6.722C50.203 327.004 39.96 290.105 39.96 253.71c.074-117.8 96.863-213.75 215.773-213.75 57.446.024 111.422 22.294 151.985 62.7 41.176 41.031 63.844 94.711 63.824 151.153-.047 117.828-96.856 213.687-215.8 213.687zm0 0" fill="url(#b)"/><path d="M186.152 141.863h-11.21c-3.903 0-10.239 1.461-15.598 7.293-5.364 5.836-20.477 19.942-20.477 48.63s20.965 56.405 23.887 60.3c2.926 3.89 40.469 64.64 99.93 88.012 49.418 19.422 59.476 15.558 70.199 14.586 10.726-.97 34.613-14.102 39.488-27.715s4.875-25.285 3.414-27.723c-1.465-2.43-5.367-3.887-11.215-6.8-5.851-2.919-34.523-17.262-39.886-19.212-5.364-1.941-9.262-2.914-13.164 2.926-3.903 5.828-15.391 19.313-18.805 23.203-3.41 3.895-6.824 4.383-12.676 1.465-5.852-2.926-24.5-9.191-46.848-29.05-17.394-15.458-29.464-35.169-32.879-41.005-3.41-5.832-.363-8.988 2.57-11.898 2.63-2.61 6.18-6.18 9.106-9.582 2.922-3.406 3.754-5.836 5.707-9.727 1.95-3.89.973-7.296-.488-10.21-1.465-2.919-12.691-31.75-17.895-43.282h.004c-4.382-9.71-8.996-10.039-13.164-10.21zm0 0" fill="url(#c)"/></symbol></svg>