<svg version="1.1" id="Capa_1" xmlns="http://www.w3.org/2000/svg" x="0" y="0" viewBox="0 0 512 512" xml:space="preserve"><linearGradient id="SVGID_1_" gradientUnits="userSpaceOnUse" x1="256.244" y1="513.822" x2="256.244" y2="1.547" gradientTransform="matrix(.9992 0 0 -.9992 -.04 513.479)"><stop offset="0" stop-color="#2af598"/><stop offset="1" stop-color="#009efd"/></linearGradient><path d="M385.22 511.933a83.683 83.683 0 01-36.609-8.414c-49.209-23.902-123.478-68.002-197.837-142.36-74.36-74.361-118.46-148.629-142.36-197.838C-7.248 131.073-.64 92.274 24.859 66.775L92.011.067l136.304 137.121-53.979 54.676c9.194 16.219 29.054 47.218 62.524 80.688 33.464 33.465 64.239 53.102 80.305 62.151l55.77-54.001L512 419.999l-66.843 67.074a84.755 84.755 0 01-59.937 24.86zm45.808-38.991h.01-.01zM91.833 56.581L53.074 95.083c-13.415 13.415-16.933 33.84-8.708 50.775 22.561 46.451 64.238 116.606 134.671 187.039 70.43 70.431 140.586 112.108 187.039 134.67 16.926 8.221 37.341 4.709 50.805-8.739l38.669-38.804-83.09-83.227-47.467 45.962-12.295-5.404c-2.008-.882-49.799-22.238-104.101-76.54-54.267-54.266-76.075-102.463-76.978-104.489l-5.55-12.462 45.984-46.579-80.22-80.704z" fill="url(#SVGID_1_)"/></svg>